<?xml version="1.0" encoding="UTF-8"?>
<svg id="Capa_2" data-name="Capa 2" xmlns="http://www.w3.org/2000/svg" viewBox="0 0 859.04 949.15">
  <g id="Capa_2-2" data-name="Capa 2">
    <g id="Capa_1-2" data-name="Capa 1-2">
      <path d="m314.27,55.57c21.72-12.23,43.43-24.46,65.15-36.69,6.13-3.22,12.41-6.18,18.35-9.71,20.16-11.97,40.36-12.2,60.79-.83,7.02,3.91,14.09,7.74,21.14,11.61,9.94,4.65,19.89,9.3,29.83,13.95,1.22,1.7,2.07,4.05,3.73,4.99,10.27,5.85,20.73,11.39,31.12,17.04,22.93,12.74,45.86,25.48,68.79,38.23,2.82,1.6,5.63,3.21,8.45,4.81,8.28,4.59,16.56,9.18,24.84,13.77,10.63,6.01,21.25,12.01,31.88,18.02,2.83,1.59,5.66,3.18,8.48,4.77,8.25,4.58,16.51,9.16,24.76,13.74,22.9,12.74,45.79,25.49,68.68,38.23,9.44,4.5,18.88,9,28.32,13.51,3.06,2.66,5.9,5.63,9.21,7.91,9.19,6.32,18.57,12.36,27.87,18.51.58,1.1,1.17,2.2,1.75,3.3-48.69,27.87-97.38,55.74-146.07,83.6-1.31-2.73-2.32-5.64-3.96-8.15-58.5-89.59-141.62-137.82-247.76-147.27-13.97.02-27.94.04-41.92.06-14.51,1.98-29.2,3.11-43.51,6.09-64.21,13.36-118.89,44.26-164.06,91.68-37.65,39.53-63.9,85.61-77.33,138.74-6.33,25.04-10.89,50.34-10.61,76.27.11,9.97,1.13,19.92,1.59,29.89,1.33,28.48,8.39,55.77,18.2,82.28,5.65,15.27,13.31,29.79,20.06,44.64-4.51,2.09-9.19,3.89-13.5,6.33-38.87,22.02-77.71,44.09-116.45,66.33-5.44,3.12-10.27,7.3-15.38,11-2.05-4.02-4.11-8.04-6.16-12.07-.15-1.61-.31-3.22-.46-4.83.04-87.27.11-174.53.1-261.8,0-59.19-.12-118.39-.19-177.58,2.29-7.21,4.59-14.42,6.88-21.63,2.82-3.32,5.63-6.64,8.45-9.97,4.91-3.04,9.98-5.87,14.7-9.19,6.43-4.52,12.59-9.42,18.87-14.16,9.93-4.53,19.85-9.06,29.78-13.59,23.54-13.2,47.09-26.4,70.63-39.6,8.22-4.55,16.44-9.11,24.65-13.66,2.86-1.64,5.72-3.27,8.58-4.91,9.94-5.6,19.88-11.2,29.81-16.8,7.89-4.42,15.79-8.84,23.68-13.25,3.22-1.77,6.44-3.54,9.67-5.3,22.84-12.76,45.68-25.53,68.53-38.29l.04-.02Z"/>
      <path d="m566.43,391.58c44.98-25.75,89.96-51.5,134.94-77.25,48.69-27.87,97.38-55.74,146.07-83.6,1.43,1.34,2.86,2.67,4.29,4.01,2.44,7.07,4.88,14.15,7.31,21.22-.09,1.94-.27,3.89-.27,5.83,0,90.47.05,180.95-.01,271.42-.03,54-.24,108-.37,162-.57,2.77-1.13,5.55-1.7,8.32-2.04,3.47-4.09,6.93-6.13,10.4-1.91-1.98-3.5-4.51-5.79-5.84-9.34-5.4-18.91-10.41-28.37-15.6-21.14-11.6-42.21-23.34-63.44-34.79-16.32-8.8-32.85-17.24-49.28-25.84-10.22-6.03-20.31-12.29-30.68-18.04-28.76-15.94-57.57-31.79-86.5-47.41-6.94-3.75-14.43-6.47-21.67-9.67-6.23-4.24-12.18-8.98-18.73-12.64-24.61-13.78-49.4-27.23-74.14-40.75-17.47-9.55-34.98-19.02-52.48-28.53,48.98-27.75,97.96-55.49,146.94-83.24h.01Z"/>
      <path d="m703.7,631.86c16.43,8.6,32.96,17.04,49.28,25.84,21.23,11.45,42.29,23.19,63.44,34.79,9.46,5.19,19.03,10.2,28.37,15.6,2.29,1.32,3.88,3.86,5.79,5.84-1.15,2.15-2.31,4.3-3.46,6.46-6.14,4.44-12.28,8.88-18.42,13.31-5.04,2.68-10.08,5.37-15.12,8.05-12.59,7.42-25.09,14.99-37.79,22.22-10.06,5.73-20.36,11.03-30.55,16.53-21.74,12.2-43.48,24.41-65.22,36.61-9.98,5.62-19.96,11.24-29.94,16.86-1.16.5-2.32,1-3.49,1.5-22.26,12.4-44.51,24.8-66.77,37.21-11.15,6.51-22.29,13.02-33.44,19.54-5.04,2.82-10.08,5.65-15.11,8.47-6.1,3.29-12.2,6.58-18.31,9.87-19.26,10.68-38.48,21.42-57.8,32-4.53,2.48-9.35,4.41-14.04,6.59-8.28,0-16.56-.01-24.84-.02-22.07-12.17-44.13-24.35-66.22-36.49-2.4-1.32-4.92-2.44-7.39-3.65-4.96-2.78-9.91-5.56-14.87-8.34-5.04-2.81-10.09-5.62-15.13-8.43-11.16-6.09-22.31-12.18-33.47-18.27-22.29-12.7-44.58-25.4-66.86-38.09-1.61-.66-3.22-1.33-4.83-1.99-9.51-5.55-19.03-11.09-28.54-16.64-9.96-5.6-19.93-11.21-29.89-16.81-1.12-.61-2.24-1.21-3.36-1.82-10.63-6.03-21.27-12.07-31.9-18.1-4.54-2.55-9.07-5.13-13.62-7.66-18.29-10.16-36.59-20.3-54.89-30.45-4.97-2.9-9.94-5.81-14.91-8.71-5.64-3.83-11.27-7.65-16.91-11.48-2.24-3.33-4.48-6.66-6.73-9.98,5.11-3.69,9.94-7.87,15.38-11,38.74-22.25,77.58-44.31,116.45-66.33,4.31-2.44,8.99-4.23,13.5-6.33,14.63,24.61,30.97,48.06,51.27,68.29,31.04,30.93,66.62,55.3,107.53,71.69,29.29,11.73,59.42,19.27,90.91,22.24,25.28,2.38,49.98.45,75.05-3.1,33.25-4.71,64.54-14.86,94.17-29.75,53.84-27.07,96.56-66.78,128.59-117.88,1.61-2.57,2.74-5.44,4.1-8.16v-.03Z"/>
      <path d="m566.43,391.58c-48.98,27.75-97.96,55.49-146.94,83.24-34.2,19.45-68.47,38.8-102.57,58.43-9.04,5.2-17.56,11.3-26.31,16.99-9.82-16.67-15.22-34.77-18.21-53.82-3.42-21.81-1.31-43.07,4.55-64.16,11.43-41.12,36.29-71.98,72.41-93.9,35.21-21.37,73.43-24.92,113.21-17.53,41.27,7.67,72.81,30.17,97.02,63.83,1.87,2.6,4.54,4.63,6.84,6.92Z"/>
      <path d="m290.62,550.24c8.76-5.69,17.28-11.79,26.31-16.99,34.1-19.64,68.36-38.98,102.57-58.43,17.49,9.51,35.01,18.98,52.48,28.53,24.75,13.53,49.54,26.98,74.14,40.75,6.55,3.67,12.5,8.4,18.73,12.64-22.64,35.44-53.76,59.36-94.5,70.95-38.49,10.95-75.66,6.97-110.9-10.44-29.78-14.72-53.65-36.7-68.82-67.01h-.01Z"/>
    </g>
  </g>
</svg>