<?xml version="1.0" encoding="UTF-8"?>
<svg id="Capa_2" data-name="Capa 2" xmlns="http://www.w3.org/2000/svg" viewBox="0 0 868.58 822.74">
  <defs>
    <style>
      .cls-1 {
        fill: #010101;
      }
    </style>
  </defs>
  <g id="Capa_2-2" data-name="Capa 2">
    <g id="Capa_1-2" data-name="Capa 1-2">
      <path class="cls-1" d="m504.54,822.72h-67.95c-2.86-7.46-9.46-15.79-7.97-22.25,9.46-41.06-2.68-79.66-8.36-117.88,7.26-10.42,14.04-21.4,14.81-32.78,1.95-29,1.29-58.18,1.49-87.29.04-5.6,1.29-14.6-1.49-16.27-22.79-13.72-6.42-38.27-16.88-50.63,7.68-8.56,15.53-13.57,17.41-20.26,2.82-10,1.31-18.21-13.21-23.09-10.89-3.66-18.09-18.32-27.16-28.33,48.18-18.99,93.06-19.44,140.29,2.66-12.36,9.95-21.82,21.47-33.97,26.51-23.22,9.64-7.18,25.12-10.82,38.82h48.4c2.98-52.34,5.87-103.17,8.91-156.49-96.9,5.34-187.95,10.36-282.7,15.59v151.58h50.76l5.55-6.22c-12.48-15.17-24.96-30.34-37.93-46.11,39.84-16.28,78.23-16.71,118.77.2-11.45,9.93-23.37,17.11-30.49,27.55-4.7,6.91-4.09,18.7-3.01,27.97,1.41,12.09,11.95,27.68,7.49,35.04-14.85,24.48-10.4,49.58-8.19,74.41,1.64,18.38,12.4,36.41,11.98,54.43-.92,39.02-6.4,77.93-10.19,118.64h-51.32v-80.62c-16.3,1.53-30.52,2.86-47.89,4.49v80.14h-90.87c3.95-25.24,7.66-48.89,11.56-73.84h-72.54c3.29,28.63,6.29,54.77,9.57,83.35-10.13,0-18.84.11-27.54-.02-34.97-.53-34.83-.56-34.2-36.04.27-15.32,2.16-31.12-.87-45.85-3.24-15.73-11.41-30.44-17.43-45.6,4.21-.11,8.41-.21,12.62-.32,3.85-10.69,10.17-21.17,11.11-32.11,4.15-48.58.41-96.45-21.34-140.82,27.81-13.47,28.19-22.58,5.8-39.22-8.34-6.2-14.61-15.19-21.41-22.47,43.85-26.75,85.66-15.66,130.21.94-15.59,11.85-29.01,22.05-44.76,34.03.21,4.55.58,12.35,1.03,22.1,27.5,1.59,53.63,3.1,82.25,4.76,2.78-50.17,5.44-97.98,8.13-146.38h-104.72c-2.06-12.54-2.58-24.87-6.31-36.14-5.29-16,.16-20.73,15.48-19.89,19.37,1.07,40.24,6.15,57.76.75,16.18-4.99,38.74-20.26,40.44-33.35,2.15-16.52-18.82-23.61-39-21.9-20.76,1.75-41.98-.87-62.88-2.78-5.4-.49-13.68-4.42-15-8.57-5.43-17-17.18-25.38-29.99-36.98-16-14.5-30.62-16.03-47.85-19.62-7.06-1.47-13.43-6.24-20.12-9.5,3.36-6.33,5.12-15.15,10.38-18.54,17.65-11.38,19.44-25.42,11.52-43.04-1.5-3.34-1.34-7.42-2.35-13.6,9.75,3.06,17.24,5.13,24.54,7.74,54.78,19.55,110.94,27.57,169.17,23.16,49.97-3.78,100.08-5.97,150.16-8.03,166.28-6.86,327.28-36.62,478.78-108.58,5.9-2.8,12.5-4.15,18.77-6.17,1.88,1.68,3.76,3.35,5.64,5.03-5,11.79-10.02,23.56-14.98,35.36-2.54,6.05-8.59,13.62-6.82,17.96,6.51,15.99,15.63,30.91,23.77,46.24v9.7c-9.79,3.28-19.6,6.52-29.37,9.85-36.73,12.51-80.37,14.51-92.99,63.33-1.09,4.2-11.79,7.31-18.45,8.46-38,6.55-76.13,12.36-112.43,18.14-4.6,11.26-8.63,21.14-13.25,32.46,18.12,11.84,33.87,27.97,61.07,19.77,21.39-6.45,44.53-7.91,67.03-9.35,5.43-.35,16.47,8.38,16.29,12.58-.72,17.11-4.79,34.08-7.88,52.57-44.99,3.8-90.55,7.66-142.79,12.07,7.2,53.31,13.85,104.19,21.39,154.94.52,3.51,7.57,8.36,11.83,8.61,16.61,1,33.32.41,49.34.41,8.44-37.11-31.61-36.34-41.18-58.78,43.83-17.82,86.37-16.7,131.11-.33-14.12,12.32-27.04,23.59-41.42,36.15.56,5.97,1.06,13.95,2.09,21.86,1.94,14.9,8.19,30.5,5.58,44.49-8.27,44.39-17.46,87.98,6.13,130.76,1.88,3.41-.77,9.28-1.24,14.02-2.33,23.4-7.56,46.95-6.33,70.16,2.69,50.74,3.28,51.41-48.91,45.97-2.27-.24-4.46-1.32-8.98-2.73v-77.62h-44.19c3.36,29.14,6.48,56.19,10.04,87.1h-97.83v-81.55h-47.67c3.12,33,6.05,64.05,8.98,95.11v-.02ZM121.68,546.71v119.67c25.67-1.67,49.24-3.19,73.95-4.8v-110.11c-23.3-1.5-47.31-3.05-73.95-4.77h0Zm143.25,4.91v109.97c15.66,0,27.94,1.53,39.52-.66,5.56-1.05,13.75-8.97,13.96-14.06,1.29-31.29.65-62.66.65-95.25h-54.13,0Zm413.48,115.52v-117.83h-52.87c2.47,41.04,4.82,79.91,7.3,121.04,16.1-1.13,30.23-2.13,45.57-3.21h0Zm-184.1-122.31v127.59h44.94v-125.26c-16.7-.87-30.04-1.56-44.94-2.33h0Zm-42.87-265.58c38.88,6.45,73.23.35,97.94-33.85-6.93-8.95-13.26-17.13-19.9-25.72-85.15,7.66-69.78-1.53-78.04,59.57h0Zm-104.72-44.74c-18.39,1.12-32.92,3.85-47.04,2.44-24.5-2.44-23.27,20.03-33.46,31.37,10.66,8.47,20.49,22.34,32.18,24.15,18.21,2.81,37.69-2.58,56.63-4.5-2.71-17.4-5.41-34.81-8.32-53.47h.01Z"/>
    </g>
  </g>
</svg>