<?xml version="1.0" encoding="UTF-8"?>
<svg id="Capa_2" data-name="Capa 2" xmlns="http://www.w3.org/2000/svg" viewBox="0 0 556.05 613.58">
  <g id="Capa_1-2" data-name="Capa 1">
    <path d="m223.55,411.32c-16.23-3.03-31.64-5.33-46.77-8.84-31.97-7.43-61.42-20.25-85.64-43.15-28.16-26.63-42.1-60.4-47.78-97.88-4.38-28.87-6.19-57.9,1.06-86.72,5.96-23.67,16.86-44.81,33.11-63.02,3.09-3.46,3.44-6.14,1.99-10.46-10.89-32.61-7.36-64.73,4.35-96.34.7-1.89,4.17-4.12,6.16-3.95,10.37.91,20.94,1.5,30.94,4.13,25.71,6.77,48.43,20.1,70.83,34.02,2.75,1.71,7.08,2.51,10.19,1.74,63.87-15.81,127.67-15.68,191.57-.14,3.29.8,7.87-.05,10.78-1.87,25.78-16.08,52.13-30.71,82.37-36.75,21.93-4.38,23.75-3.43,29.59,17.67,7.63,27.53,8.21,55.08-.19,82.65-.66,2.16-.23,5.69,1.18,7.3,28.62,32.76,40.4,71.08,38.58,114.11-1.23,29.25-5.16,57.96-16.7,85.15-19.46,45.88-54.92,73.76-101.62,87.74-21.05,6.3-42.92,9.91-64.75,14.81,0-.81-.19-.19.03.04,18.64,19.3,24.93,43.31,25.21,69.09.39,36.1.03,72.22-.36,108.32-.11,10.48,2.71,18.29,13.74,22.42-76.16.73-152.33,1.45-228.49,2.18,14.73-4.21,15.49-15.61,15.24-28.09-.38-19.27-.1-38.56-.1-58.5-10.3,1.31-19.18,2.74-28.11,3.53-23.63,2.07-46.54-.64-67.81-11.91-19-10.06-32.78-24.97-40.96-45-10.23-25.08-24.44-47.02-48.4-61.39-3.91-2.34-7.38-5.74-10.35-9.25-4.09-4.85-3.04-9.3,3.18-10.33,7.61-1.25,15.86-1.91,23.29-.3,22.93,4.95,38.89,19.86,51.72,38.79,5.07,7.48,10.24,15.15,16.61,21.46,24.09,23.85,53.05,26.6,84.27,18.02.67-.18,1.3-.55,1.98-.68,9.85-1.92,15.95-6.13,17.47-17.69,2.07-15.77,10.95-28.94,22.6-40.92Z"/>
  </g>
</svg>