<?xml version="1.0" encoding="UTF-8"?>
<svg id="Capa_2" data-name="Capa 2" xmlns="http://www.w3.org/2000/svg" viewBox="0 0 694.16 692.52">
  <g id="Capa_1-2" data-name="Capa 1">
    <path d="m348.98,0c32.76.29,63.28,12.04,88.02,36.58,73.51,72.91,146.91,145.94,219.82,219.46,49.42,49.84,49.92,128.48.72,179.23-46.52,47.98-94.39,94.66-141.67,141.9-24.66,24.64-49.31,49.3-74.02,73.88-55.69,55.4-134.16,55.28-189.89-.32-70.15-69.98-140.27-139.98-210.37-210-55.57-55.51-55.41-133.95.29-189.52C112.75,180.49,183.59,109.72,254.49,39.01,280.22,13.34,311.78.09,348.98,0Zm-67.88,106.07c14.94,14.9,30.4,30.57,46.26,45.82,1.92,1.85,6.16,2.43,9.06,1.95,43.1-7.2,81.5,30.66,74.11,73.52-.85,4.93.08,8.2,3.7,11.74,18.92,18.52,37.67,37.22,56.2,56.13,3.6,3.67,6.97,4.41,11.82,3.61,36.16-6.01,70.68,20.58,74.04,56.81,3.43,36.92-24.61,69.49-60.98,70.85-37.45,1.4-69.71-28.49-67.08-65.19,1.02-14.18-3.26-22.57-13.02-30.46-2.23-1.8-4.11-4.04-6.15-6.08-9.37-9.37-18.74-18.75-29.17-29.18-.32,3.43-.61,5.17-.61,6.91-.02,47.67-.12,95.34.21,143,.02,3.12,2.65,7.18,5.3,9.18,22.06,16.7,31.66,43.75,24.25,69.71-7.73,27.06-31.9,46.11-59.41,46.82-29.1.75-54.48-16.56-63.61-43.36-9.1-26.74.18-55.74,22.91-72.88,2.69-2.03,5.63-5.93,5.65-8.98.34-55.79.31-111.57.06-167.36-.01-2.77-2.04-6.42-4.3-8.15-21.47-16.46-30.71-37.7-26.74-64.62.37-2.5-.09-6.11-1.68-7.74-15.5-15.98-31.31-31.65-49-49.37-1.88,2.91-3.07,5.7-5.06,7.7-46.68,46.74-93.45,93.39-140.2,140.07-30.78,30.74-30.9,68.34-.2,99,70.11,70.03,140.24,140.03,210.39,210.01,30.08,30.01,68.14,30.18,98.09.33,70.55-70.33,141.04-140.71,211.5-211.13,29.56-29.53,29.48-67.69-.18-97.35-51.34-51.35-102.76-102.63-154.15-153.93-20.22-20.19-40.23-40.6-60.76-60.46-23.96-23.17-60.08-25.28-85.25-4.5-9.4,7.76-16.9,17.8-25.99,27.58Z"/>
  </g>
</svg>