<?xml version="1.0" encoding="UTF-8"?>
<svg id="Capa_2" data-name="Capa 2" xmlns="http://www.w3.org/2000/svg" viewBox="0 0 108.64 117">
  <g id="Capa_2-2" data-name="Capa 2">
    <g id="Capa_1-2" data-name="Capa 1-2">
      <g>
        <path d="m8.37,50.27v7.82c.02,5.22,3.56,8.77,8.78,8.77h82.11c6.05,0,9.38,3.32,9.38,9.35v31.73c0,5.59-3.45,9.06-9.01,9.06H9.03C3.47,117,.02,113.53,0,107.94,0,92.71-.01,77.47,0,62.24c0-5.21,2.39-9.05,6.98-11.52.27-.14.55-.25.84-.36.12-.04.24-.05.53-.11v.02Zm43.85,58.38h0c1.83-.01,3.66.05,5.48-.02,5.17-.19,9.5-4.36,9.93-9.51.44-5.33-3.15-10.19-8.38-11.1-1.82-.32-3.72-.21-5.59-.26-1.74-.04-2.73-.79-2.71-2.13.02-1.33.99-2.05,2.76-2.06,2.52,0,5.05.02,7.57,0,2.44-.03,4.27-1.84,4.27-4.17s-1.83-4.15-4.27-4.17c-2.83-.03-5.66-.05-8.48,0-5.38.1-9.8,4.31-10.2,9.64-.39,5.3,3.25,10.1,8.52,11,1.78.3,3.64.19,5.46.23,1.75.04,2.72.77,2.7,2.12-.02,1.35-.96,2.06-2.76,2.06-3.22,0-6.44-.02-9.66,0-2.44.02-4.28,1.84-4.28,4.16s1.84,4.14,4.27,4.18c1.78.03,3.57,0,5.35,0l.02.03Zm27.16,0h0c1.83-.01,3.66.05,5.48-.02,5.17-.19,9.5-4.36,9.93-9.51.44-5.33-3.15-10.19-8.38-11.1-1.82-.32-3.72-.21-5.59-.26-1.74-.04-2.73-.79-2.71-2.13.02-1.33.99-2.05,2.76-2.06,2.52,0,5.05.02,7.57,0,2.44-.03,4.27-1.84,4.27-4.17s-1.83-4.15-4.27-4.17c-2.83-.03-5.66-.05-8.48,0-5.38.1-9.8,4.31-10.2,9.64-.39,5.3,3.25,10.1,8.52,11,1.78.3,3.64.19,5.46.23,1.75.04,2.72.77,2.7,2.12-.02,1.35-.96,2.06-2.76,2.06-3.22,0-6.44-.02-9.66,0-2.44.02-4.28,1.84-4.28,4.16s1.84,4.14,4.27,4.18c1.78.03,3.57,0,5.35,0l.02.03ZM13.72,91.86h.12c0,1.31-.02,2.61,0,3.92.1,5.77,3.89,10.77,9.33,12.34,6.02,1.73,11.52-.21,14.86-5.25,1.44-2.17.99-4.76-1.04-6.07-2.05-1.32-4.56-.7-5.94,1.55-1.22,1.99-2.54,2.26-5.22,1.8-2.04-.35-3.54-2.1-3.6-4.1-.08-2.74-.08-5.49,0-8.22.06-1.99,1.59-3.74,3.62-4.09,2.61-.45,3.98-.18,5.08,1.58,1.53,2.45,3.96,3.14,6.08,1.77,2.14-1.39,2.48-4.01.82-6.4-2.87-4.14-6.83-5.81-11.81-5.44-5.82.43-10.91,4.77-11.89,10.52-.34,2-.28,4.07-.4,6.11v-.02Z"/>
        <path d="m16.73,58.42V9.24C16.73,3.4,20.13.02,25.97.02c15.15,0,30.29,0,45.44-.02,1.79,0,3.15.57,4.37,1.87,6.18,6.61,12.4,13.19,18.64,19.75,1.15,1.21,1.71,2.52,1.71,4.2-.04,10.45-.02,20.89-.02,31.34v1.26s-79.38,0-79.38,0Zm53.8-29.33c0-1.26.06-2.56-.01-3.85-.21-3.63-2.02-6.22-5.32-7.71-2.07-.93-4.36-.12-5.39,1.79-1.07,1.98-.47,4.33,1.53,5.55.66.4.86.83.85,1.55-.03,4.52-.03,9.04,0,13.56,0,.93-.28,1.51-1.12,1.99-2.08,1.2-2.74,3.62-1.65,5.62,1.08,1.98,3.52,2.76,5.63,1.68,3.42-1.74,5.28-4.54,5.46-8.4.05-1.07,0-2.14,0-3.16,2.96-.8,4.22-2.17,4.18-4.41-.04-2.14-1.4-3.55-4.18-4.22h.02Zm-31.09,8.63c0,1.09-.04,2.13,0,3.17.19,3.85,2.05,6.66,5.47,8.4,2.12,1.07,4.56.29,5.63-1.69,1.08-2,.41-4.41-1.66-5.63-.76-.45-1.12-.95-1.12-1.86.03-4.61,0-9.22.05-13.82,0-.44.36-1.04.74-1.29,2.02-1.38,2.7-3.66,1.6-5.67-1.09-1.99-3.46-2.74-5.64-1.68-3.21,1.56-4.92,4.17-5.08,7.74-.06,1.25,0,2.51,0,3.73-2.77.62-4.14,2.04-4.18,4.21-.04,2.21,1.25,3.61,4.18,4.4h0Z"/>
      </g>
    </g>
  </g>
</svg>