<?xml version="1.0" encoding="UTF-8"?>
<svg id="Capa_2" data-name="Capa 2" xmlns="http://www.w3.org/2000/svg" viewBox="0 0 1508 1345.17">
  <defs>
    <style>
      .cls-1 {
        fill: #fff;
      }
    </style>
  </defs>
  <g id="Capa_1-2" data-name="Capa 1">
    <g>
      <path class="cls-1" d="m0,371.09c4.41-16.08,9.89-31.62,20.7-44.8,17.71-21.59,41.06-34.15,66.97-43.02,13.53-4.63,26.78-10.1,40.14-15.23,1.08-.42,2.01-1.23,3.01-1.86-.1-.76-.2-1.52-.29-2.28-3.65.19-7.7-.58-10.86.76-7.73,3.28-14.91,7.85-22.59,11.3-5.75,2.58-11.82,5.52-17.93,6.01-14.5,1.17-22.66-9.43-18.47-23.4,4.18-13.96,13.39-23.52,27.56-27.53,8.61-2.44,17.53-3.76,26.16-6.14,27.17-7.49,38.44-39.91,21.94-62.68-6.66-9.19-6.48-15.19,2.52-22.55,9.5-7.77,20.1-14.17,29.77-21.74,5.6-4.38,10.97-9.38,15.27-15,7.04-9.19,5.74-19.67-2.71-27.61-4.1-3.85-8.81-7.04-13.1-10.69-10.12-8.59-15.54-19.58-15.89-32.86-.36-13.6,5.97-23.24,18.67-27.88,15.34-5.6,30.78-5.17,45.7,1.49,16.16,7.22,22.76,22.14,18.1,40.28-1.46,5.69-3.79,11.14-5.51,16.77-4.67,15.27,1.45,26.71,17.11,28.65,13.12,1.62,26.56.72,39.86.95,6.4.11,12.83-.08,19.19.5,17.24,1.57,24.03,11.02,20.36,27.81-2.85,13.08-1.48,18.2,11.56,22.55,15.41,5.14,31.73,7.58,47.69,11.04,6,1.3,12.12,2.01,18.12,3.32,19.66,4.29,34.34,13.69,35.64,36.56,20.85.41,37.43,10.36,53.3,21.98,15.41,11.28,31.99,18.79,50.95,23.68,39.14,10.1,77.68,22.98,111.18,46.96,14.37,10.29,25.98,23.04,33.2,39.91-7.87,6.37-17.11,8.19-26.11,6.57-14.53-2.62-28.82-6.67-43.07-10.65-14.76-4.12-29.11-10.01-44.05-13.09-21.33-4.4-34.96,4.57-36.84,26.04-1.87,21.29-.9,42.97.45,64.38,2.82,44.77,6.48,89.49,10.19,134.19,6.72,80.82,16.68,161.05,44.53,237.96,19.87,54.87,47.09,105.57,83.04,151.67,43.49,55.76,89.3,109.31,146,152.24,70.12,53.1,148.72,89.01,233.2,112.47,22.69,6.3,45.63,11.7,68.37,17.82,9.36,2.52,17.16.79,23.73-6.38,9.01-9.82,17.43-20.3,27.24-29.25,12.98-11.85,26.36-23.54,40.89-33.34,11.96-8.07,25.71-7.59,38.61.19,3.73,2.25,6.19,4.69,3.89,9.17-4.17,8.12-8.02,16.46-12.9,24.14-3.4,5.35-8.74,9.43-12.41,14.64-5.2,7.39-9.66,15.3-14.54,23.16,11.64,8.44,23.15,7.46,34.1,5.58,20.31-3.48,39.77-1.31,58.95,5.61,4.09,1.48,8.28,2.69,12.47,3.86,16.74,4.68,31.95,2.63,44.82-10.11,2.53-2.5,5.55-4.49,8.77-7.06,11.65,13.19,27.22,14.4,43.04,14.23,18.45-.19,36.9-1.39,55.34-1.26,13.96.1,26.31,4.44,32.98,18.32v16.93c-.65,1.29-1.84,2.57-1.86,3.87-.09,7.9-5.35,11.29-11.75,13.13-13.25,3.81-26.58,7.33-39.95,10.69-19.06,4.8-39.23,6.98-56.95,14.77-13.19,5.8-23.51,8.6-37.73,4-18.95-6.13-37.87.64-56.31,6.44-20.47,6.44-40.82,13.61-61.71,18.23-12.78,2.82-26.63.41-39.77,2.13-46.47,6.09-92.75,13.65-139.71,15.32-9.42.34-18.81,1.45-28.21,2.2h-60.01c-10.68-.96-21.35-2.13-32.05-2.85-72.16-4.89-143.73-13.84-214.8-27.66-152.12-29.58-279.27-104.67-389.66-211.03-30.66-29.55-54.51-64.61-79.57-98.64-93.28-126.67-161.68-265.13-196.82-419.1-14.99-65.66-31.44-130.78-61.14-191.72v-23.08Zm1014.67,826.25c-3.94.42-5.9.58-7.84.85-17.1,2.34-33.78.83-49.8-5.8-22.24-9.2-38.77-25.41-53.75-43.65-2.53-3.07-6.54-5.71-10.36-6.8-29.84-8.55-59.26-18.1-86.45-33.48-27.3-15.46-50.04-35.63-65.39-63.38-1.16-2.09-2.66-6.13-1.87-6.82,6.22-5.43.9-8.52-2.07-11.84-29.41-32.94-57.95-66.45-77.53-106.61-2.87-5.88-9.1-10.11-13.77-15.11-5.16-5.53-10.31-11.07-15.48-16.6-2.6-2.78-5.23-5.54-7.84-8.3-.67.33-1.34.66-2.01.99-.76,5.61-1.51,11.22-2.6,19.23-7.82-23.85-17.33-43.45-43.51-45.99-1.05-15.28,12.95-19.59,19.09-27.44-3.81-9.52-7.93-17.55-10.27-26.08-10.08-36.79-19.64-73.72-29.38-110.6-2.91-11.01-5.76-22.04-8.77-33.61-13.57,5.71-16.32,18.65-23.77,30.58.74-16.25.39-30.31,12.32-43.35,1.75,3.28,3.07,5.76,4.6,8.63,12.44-21.71,10.79-28.01-6.87-29.78,4.98-15.77,8.63-31.66,5.74-48.34-.94-5.43-1.62-10.83-9.47-9.34,1.36-12.95,2.83-25.15,3.87-37.39,1.55-18.19,1.87-36.35-3.03-54.22-1.77-6.45-3.7-12.48-13.05-10.1.56-2.11.81-3.3,1.18-4.45,8.31-25.93,11.67-52.54,9.55-79.64-.63-8.01-3.06-16.1-5.94-23.67-3.83-10.08-11.61-12.91-21.78-8.94-3.8,1.48-7.21,3.95-11.02,5.37-4.49,1.67-9.15,3.17-13.86,3.86-9.86,1.45-20.02,1.41-29.67,3.65-15.47,3.6-30.63,8.55-47.84,13.48,9.2,7.66,20.09,8.57,24.49,20.02-10.27-1.95-19.31-3.4-28.23-5.43-8.88-2.02-17.64-4.6-26.49-6.95-2.74,14.82-7.66,19.27-22.28,19.93-8.17.37-16.38.07-25.69.07,5.59,7.04,4.74,13.36-1.32,18.05-18.03,13.93-38.1,20.42-61.11,15.85-2.55-.51-6.5.46-8.2,2.25-7.01,7.4-5.65,15.96-1.69,24.31,4.38,9.24,9.8,18.06,13.44,27.57,5.2,13.57-4.11,26.5-18.49,27.58-11.52.86-23.84,1.45-32.32,10.06-5.07,5.14-7.09,13.28-10.75,20.59-10.56-1.49-12.71.58-11.7,13.16.72,8.95,4.73,16.18,11.89,21.5,4.4,3.27,8.97,6.22,14.37,1.12,1.21-1.14,3.92-1.4,5.75-1.05,14.13,2.71,26.58,8.65,33.7,21.78,11.2,20.67,9.94,43,6.97,65.29-.79,5.94-4.73,6.61-9.51,3.53-8.23-5.31-12.73-13.19-15.09-22.39-3.66-14.29.4-21.4,15.03-25.6-3.48-5.58-6.51-11.2-10.25-16.3-9.23-12.62-20.65-13.07-30.45-.93-6.54,8.11-12.27,16.88-18.45,25.48,1.86,1.16,3.74,2.07,5.3,3.36,8.24,6.82,17.22,12.99,24.36,20.83,7.02,7.7,5.31,15.15-2.67,21.95-1.05.9-2.02,1.89-3.55,3.32,21.37,3.47,32.11,16.87,37.44,35.92,2.34,8.36,4.34,16.95,7.89,24.81,5.32,11.8,11.59,12.84,21.33,4.47,7.03-6.04,13.73-12.6,23.99-4.73-16.65-20.38-40.78-32.75-54.32-58.59,9.67.74,17.1,1.31,25.49,1.95-.19-3.76-.1-7.27-.61-10.69-1.18-7.84-3.25-15.6-3.74-23.46-.22-3.53,1.57-8.25,4.13-10.63,3.64-3.4,8.83-5.14,14.45-8.18-.71,5.71-1.82,11.6-2.09,17.53-.49,10.66-1.41,21.43-.35,31.97.73,7.26,6.25,8.83,12.53,4.7,2.92-1.92,5.31-4.75,7.67-7.41,3.57-4.02,6.65-8.5,10.42-12.3,3.75-3.78,9.42-5.84,12.99-1.41,9.91,12.27,20.06,24.65,27.7,38.33,5.32,9.53-2.7,18.99-13.8,17.23-8.67-1.38-16.96-5.26-25.38-8.14-2.17-.74-4.19-1.92-6.28-2.9-.52.62-1.04,1.23-1.57,1.85,4.16,5,7.84,10.53,12.6,14.87,7.37,6.72,15.78,12.3,23.19,18.98,10.16,9.17,16.41,20.32,14.2,34.71-3.48,22.59,13.95,36.97,35.39,29.17.39-.14.93.14.9.13,2.99,5.84,5.83,11.39,8.67,16.95,1.06-.2,2.13-.4,3.19-.6,1.85-8.01,3.7-16.03,5.53-23.95,18.38,1.18,33.8,14.25,39.49,33.09,1.4,4.65,2.05,9.72,4.38,13.83,1.91,3.36,5.82,5.57,10.28,9.59,1.9-21.44-12.71-34.83-15.79-52.45,9.41,8.58,18.7,15.97,26.63,24.61,7.16,7.81,14.38,16.26,18.76,25.73,6.27,13.53.41,24.29-13.81,28.71-7.9,2.45-16.16,3.73-23.5,5.37,8.96,8.18,18.14,16.56,27.32,24.94,8.59,7.85,18.15,12.72,30.32,12.92,5.2.08,11.42,2.44,15.28,5.89,7.16,6.4,13.98,13.73,18.95,21.88,4.11,6.74,5.92,15.11,7.68,22.99,1.24,5.57-1.49,9.28-7.85,10.82-11.67,2.83-21.82-.77-31.65-6.05-10.38-5.57-20.21-12.22-30.81-17.27-7.79-3.71-16.45-5.6-24.72-8.3-.33.83-.66,1.65-1,2.48,7.47,9.99,17.94,16.15,29.08,21.16,21.95,9.87,44.08,19.32,66.1,29.03,39.22,17.3,78.2,35.19,110.41,64.34,17,15.38,32.88,32.01,49.48,48.28-13.62,10.22-52.87,3.71-63.81-6-4.79-4.25-4.61-8.03.62-11.96,2.06-1.55,4.32-2.82,7.7-5-15.27-.98-28.2-9.4-42.84-4.36,2.98,17.2,12.66,28.07,27.85,32.86,12.35,3.89,25.34,6.11,38.21,7.94,15.36,2.19,30.89,3.18,47.71,4.83-2.99,4.63-5.14,8.01-7.34,11.36-2.2,3.36-4.46,6.68-7.34,10.98,5.01,1.19,8.96,2.12,13.61,3.22-2.71,1.99-5.06,3.2-6.66,5.06-1.36,1.58-2.82,5.53-2.6,5.66,8.69,5.13,17.56,9.96,26.44,14.76.24.13.85-.49,1.31-.71,12.75-5.98,19.08-4.44,27.62,6.99,4.29,5.74,8.01,11.95,12.61,17.42,7.14,8.48,15.96,9.04,24.12,1.56,4.32-3.96,7.57-9.06,11.78-13.15,4.2-4.08,9.01-7.53,13.55-11.26.66.68,1.31,1.36,1.97,2.04-5.6,7.25-11.21,14.51-16.81,21.76.53.68,1.05,1.36,1.58,2.03,6.23-3.19,12.35-6.62,18.72-9.49,7.86-3.55,15.67-7.82,23.97-9.68,21.69-4.87,42.93-.16,61.91,9.67,35.87,18.58,74.99,26.89,112.92,38.97,17.9,5.7,34.52,1.98,51.05-8.42-4.04-2.44-7.06-5.11-10.58-6.23-10.95-3.47-22.2-6.01-33.12-9.56-12.79-4.16-25.56-8.51-37.92-13.77-5.4-2.29-9.64-7.05-1.31-13.96ZM182.86,370.66c-17.37,9.81-32.58,7.79-47.23-.25-14.37-7.89-21.63-19.94-17.5-38.17-15.16,3.83-29.52,6.51-43.19,11.21-10.74,3.7-21.71,8.45-30.66,15.26-23.02,17.53-19.04,58.08,6.87,73.2-.41-3.92-.84-7.43-1.12-10.95-1.16-14.78.36-29.19,6.47-42.84,8.8-19.67,24.63-25.21,44.62-15.29-3.44,1.29-6.55,2.28-9.51,3.6-10.19,4.55-13.12,12.65-8.32,22.67,7.32,15.31,29.29,28.08,46.14,26.84,8.5-.63,10.66-2.79,11.08-11.4.17-3.44.03-6.9.03-10.29,16.61-2.03,32.19-3.94,49.84-6.11-1.9,7.19-3.12,11.82-4.69,17.77,8.28-1.72,16.03-2.01,22.59-4.94,19.57-8.76,38.93-18.09,57.91-28.06,24.38-12.8,49.22-22.66,77.56-20.76,8.61.58,17.39-.76,26.06-1.59,48.22-4.57,94.54-17.6,140.52-31.97,15.54-4.86,30.16-11.74,41.36-24.09,8.71-9.6,13.1-20.81,10.16-33.92-1.62-7.23-5.19-11.86-13.91-12.37-31.31-1.81-62.51-1.49-93.67,2.11-45.45,5.25-89.55,16.6-133.43,29.08-50.44,14.33-100.12,31.61-152.5,38.38-6.37.82-12.33,4.84-18.47,7.38-.04,1.16-.07,2.32-.11,3.49,8,4.83,16.01,9.66,24.98,15.08-3.52,1.58-5.64,2.43-7.67,3.46-5.82,2.93-6.27,6.3-1.12,10.33,2.39,1.87,5.48,2.85,7.89,4.71,2.88,2.22,5.36,4.96,9.02,8.43Zm331.15,827.16c-.39.86-.77,1.71-1.16,2.57,27.65,26.15,66.25,33.81,96.3,55.95-38.31-10.4-71.54-32.26-108-46.99,9.94,7.82,19.88,15.68,30.94,21.4,62.51,32.33,127.06,59.89,196.63,72.55,50.09,9.12,100.71,15.5,151.23,22.06,52.24,6.78,104.71,8.59,157.22,2.78,11.56-1.28,23.03-3.35,34.54-5.05.04-.72.08-1.44.12-2.16-4.24-1.19-8.46-3.3-12.73-3.42-20.17-.55-40.36-1.04-60.53-.63-23.02.47-46.07,3.19-67.94-7.54-3.74-1.83-9.02-1.05-13.53-.69-14.25,1.13-28.55,4.36-42.67,3.62-27.33-1.44-54.57-4.78-81.79-7.83-21.59-2.42-43.64-3.55-63.76-12.75-56.53-25.84-116.14-44.56-170.8-74.75-13.96-7.71-29.35-12.81-44.08-19.11Zm-138.85-125.06c-17.22,2.87-27.92-8.16-36.08-23.56-3.71-7-7.62-13.95-12.09-20.48-1.63-2.38-5.05-4.72-7.81-4.93-13.98-1.06-23.79-8.13-29.37-20.42-4.96-10.92-8.85-22.35-12.73-33.73-5.6-16.45-13.82-30.75-29.12-40.19-3.12-1.93-6.56-4.87-7.76-8.11-7.3-19.69-20.06-35.66-33.89-50.87-17.26-18.99-30.93-40-39.75-64.27-4.35-11.98-9.72-23.71-15.81-34.9-3.88-7.14-9.94-13.1-15.02-19.59-.6.4-1.2.8-1.81,1.2.33,1.15.63,2.32.98,3.46,10.66,34.51,26.63,66.61,46,96.88,37.56,58.7,75.68,117.04,113.94,175.29,14.81,22.54,31.05,44.12,52.97,60.46,18.77,14,36.16,29.38,51.87,46.78,5.27,5.83,11.65,10.85,18.16,15.31,11.83,8.1,25.13,11.01,40.28,8.9-1.29-3.41-2.18-6.56-3.61-9.45-9.06-18.36-25.23-26.77-44.13-31.41-2.57-.63-5.46-1.58-7.29-3.33-5.7-5.45-11.07-11.26-16.37-17.11-3.76-4.15-7.97-8.17-10.51-13.02-1.68-3.21-.76-7.78-1.08-12.9Zm73.28-82.51c.68-1.13,1.35-2.26,2.03-3.39-4.7-4.16-9.64-8.08-13.98-12.59-1.72-1.78-3.44-5.21-2.87-7.24,1.86-6.57.07-11.58-4.61-15.95-3.37-3.14-6.93-6.08-10.35-9.18-4.71-4.28-9.26-8.65-3.18-15.23-9.42-6.59-20.91-9.6-27.5-21.84h19.28c-1.04-2.28-2.38-2.86-3.44-3.77-3.92-3.39-7.75-6.9-11.62-10.36,4.18-2.91,8.25-6,12.59-8.67,3.87-2.38,8.02-4.28,12.05-6.39-.27-.77-.54-1.54-.81-2.31-20.72-4.97-40.26-15.21-64.6-14.09,3.83,5.32,6.61,9.17,9.36,13-6.07-1.66-12.1-3.32-19.47-5.34,1.51,5.82,2.43,9.36,3.58,13.82-6.06-.51-10.98-.93-18.26-1.55,8.6,9.56,15.77,17.53,22.95,25.49-.54.56-1.08,1.12-1.62,1.67-3.4-.21-6.79-.41-11.49-.7,13.14,11,25.27,21.15,37.39,31.29-.6.88-1.19,1.77-1.78,2.65-8.59-3.8-17.18-7.6-27.45-12.14,6.36,12.09,16.01,16.79,25.53,21.83,17.14,9.06,34.04,18.57,51.18,27.65,8.88,4.71,18.04,8.89,27.07,13.31ZM301.9,253.35c-1.1-3.76-1.66-5.43-2.07-7.14-1.39-5.74-3.85-12.92,2.48-15.97,6.27-3.01,10.63,3.36,14.09,7.98,4.6,6.13,8.36,12.89,12.84,19.12,4.55,6.33,10.85,9.34,18.75,7.7,7.79-1.61,10.85-7.98,11.71-14.59,1.03-7.91.24-16.05.24-24,7.24,6.07,14.64,12.28,22.05,18.49.96-.88,1.91-1.76,2.87-2.63-5.49-8.04-10.97-16.07-16-23.45,2.49-5.6,4.85-10.89,7.64-17.15-15.59-2.13-28.56.46-41.44,3.89-32.12,8.56-64.21,17.19-96.33,25.74-19.04,5.07-38.17,9.79-57.12,15.17-5.72,1.63-10.96,4.97-16.41,7.53l.86,1.96c2.47-.48,4.97-.85,7.41-1.46,15.88-4,31.65-8.5,47.65-11.99,27.52-6.01,54.93-9.29,80.78,10.79Zm17.14,487.15c1.54,3.7,2.8,6.67,4.01,9.66,2.11,5.18,5.01,10.21,6.11,15.6,1.67,8.18-2.67,12.52-10.77,10.67-7.88-1.81-15.46-4.98-23.13-7.68-8.38-2.95-16.6-6.46-25.14-8.87-3.02-.85-9.07-.06-9.67,1.52-1.26,3.33-.19,7.76.62,11.59.44,2.12,2.42,3.87,3.47,5.91,2.71,5.28,5.3,10.63,8.6,17.3,34.55,11.02,64.81,37.18,103.94,44.52-3.82-13.62-7.67-26.6-18.95-33.74-11.1-7.02-14.67-16.79-16.96-28.42-2.16-10.99-4.88-21.89-7.99-32.65-1.79-6.19-6.69-7.78-14.15-5.42Zm178.82,308.26c-.03-1.02-.06-2.04-.09-3.06-3.04-2.15-5.8-5.15-9.18-6.32-21.67-7.46-43.29-15.18-65.33-21.39-8.82-2.48-18.79-2.32-27.81,3.4,2.59,11.27,10.31,18.29,19.7,23.03,7.2,3.63,15.43,5.17,23.12,7.88,14.11,4.98,28.62,5.59,43.12,3.15,5.7-.96,10.99-4.39,16.47-6.7ZM262.26,146.87c-4.25,16.92,4.47,39.37,20.11,48.95,6.81,4.17,15.59,6.25,23.67,6.92,8.53.71,9.67-1.72,8.15-10.27-.96-5.4-2.34-10.72-3.91-17.82,6.47,1.88,11.21,3.26,15.95,4.64-15.35-22.99-41.74-22.67-63.97-32.42Zm871.12,1098.81c6.25.38,11.96.82,17.69,1.07,19.66.85,39.33,1.76,59,2.39,13.77.44,27.63,1.33,41.31.26,6.75-.53,13.19-5.06,19.77-7.78l-.8-2.92c-32.19-3.61-64.35-7.54-96.59-10.6-7.98-.76-16.41.52-24.31,2.27-7.24,1.6-13.84,5.35-16.06,15.31ZM170.21,776.04c-6-14.63-12.13-29.7-18.36-44.74-5.37-12.96-10.37-26.1-16.42-38.73-6.48-13.53-14.08-26.52-21.05-39.83-2.96-5.65-4.94-11.92-8.49-17.14-3.89-5.72-9.07-10.56-13.68-15.78-.63.44-1.26.89-1.9,1.33.52,2.16.71,4.46,1.59,6.46,18.11,40.87,35.96,81.86,54.71,122.44,5.13,11.1,13.91,20.07,23.6,25.99Zm3.59-721.63c.43-.44.87-.88,1.3-1.32-.59-1.12-1.18-2.24-1.78-3.36-5.74-10.71-3.67-14.17,8.62-14.32,2.3-.03,4.61.05,6.91.16,7.15.34,14.33,1.32,21.44.94,8.42-.45,10.23-3.5,7.62-11.57-1.08-3.33-2.86-6.66-5.1-9.33-8.72-10.36-24.37-11.86-35.36-3.7-11.08,8.22-15.32,26.67-8.43,37.2,1.29,1.97,3.17,3.54,4.78,5.29Zm700.58,1197.3c.55.8,1.1,1.59,1.65,2.39,3.55-1.97,7.34-3.61,10.6-5.97,6.9-4.99,8.7-4.84,11.34,3.07,2.08,6.25,5.65,6.66,10.52,3.84,8.44-4.87,11.52-12.77,11.58-22,.09-14.57-3.66-17.31-17.14-12.57-15.13,5.31-26.65,14-28.55,31.23Zm-188.58,10.44c33.46,17.54,68.13,29.99,106.77,25.64-33.88-15.6-70.34-20.53-106.77-25.64ZM213.91,467.79c-.26.8-.53,1.6-.79,2.4-7.42-.42-14.84-.84-22.27-1.25-.46.99-.92,1.97-1.38,2.96,3.76,2.83,7.13,6.7,11.35,8.27,8.44,3.14,17.14,1.24,23.99-4.07,3.95-3.06,8.2-8.97,7.89-13.29-.24-3.48-6.81-8.71-11.1-9.3-13.18-1.8-26.61-1.74-39.94-2.41-.17,1.04-.34,2.08-.51,3.12,10.91,4.52,21.83,9.04,32.74,13.56Zm-76.07,216.32c-2.04-28.76-11.75-54.42-31.19-76.05,7.77,26.39,7.94,55.84,31.19,76.05Zm432,372.21c-4.49-3.13-7.11-6.41-10.1-6.78-15.93-1.99-28.2-11.34-41.42-19.03-5.6-3.25-12.35-4.52-18.58-6.69,13.8,25.03,43.07,38.4,70.11,32.51ZM189.05,200.52c24.68-9.48,50.03-8.78,76.13-4.43-3.29-10.86-9.61-15.65-20.07-15.68-20.87-.06-38.59,9.35-56.06,20.11Zm419.85,845.84c.25-.97.49-1.94.74-2.91-5.75-1.5-11.43-3.37-17.26-4.4-6.52-1.16-12.47-2.36-18.25-6.59-10.49-7.68-22.98-8.33-37.66-6.53,23.06,15.93,46.56,22.46,72.43,20.43Zm793.91,195.65c23.67,10.08,46.78,4.12,69.88-2.64-23.39-3.1-46.67-1.92-69.88,2.64ZM669.64,321.26c4.46-17.81-13.26-32.29-34.81-26.49,12.4,9.44,23.44,17.84,34.81,26.49Zm-83.57,801.76c-13.24-9.56-26.18-19.74-45.8-18.64,13.5,14.43,28.21,20.17,45.8,18.64Zm371.54,106.95c-11.59.57-21.86,1.83-27.69,11.71-1.8,3.06-.28,8.08-.28,13.32,12.67-6.19,23.25-11.24,27.98-25.03ZM158.57,471.64c-6.4-.61-12.52-1.76-18.58-1.5-2.27.1-5.73,3.18-6.2,5.42-.46,2.15,1.62,5.79,3.66,7.37,9.24,7.1,17.47,3.22,21.12-11.29Zm-3.05,101.8c.74-10.7-5.52-18.18-14.3-17.43-2.77.24-6.53,3.02-7.48,5.53-.66,1.75,2.13,6.37,4.39,7.33,5.26,2.24,11.13,3.04,17.39,4.57Zm123.22-461.58c-14.31-7.49-27.36-4.79-30.56,6,11.02,4.14,23.43,1.88,30.56-6Zm223.68,900.99l.98-2.97c-11.93-5.05-23.86-10.11-35.79-15.16-.37.87-.75,1.74-1.12,2.61,8.49,13.09,22.34,14,35.94,15.52Zm-369.91-479.07c5.16,8.73,14.53,14.47,21.43,12.95,2.19-.48,4.17-2.51,5.86-4.21.34-.35-.71-2.97-1.72-3.62-7.72-5.03-16.05-7.14-25.58-5.12Zm411.69,535.73c10.16,11.58,24.4,16.5,34.94,12.58-9.75-8.73-20.86-12.68-34.94-12.58ZM102.92,576.23c-2.33-6.25-4-11.8-6.54-16.91-.81-1.63-4.66-3.49-5.79-2.86-2.01,1.12-4.06,3.98-4.22,6.25-.51,6.98,7.04,13.47,16.55,13.52Zm941.3,686.53c-16.71,1.94-24.34,8.23-23.19,18.99,9.75-3.76,18.09-8.89,23.19-18.99Zm-110.18,3.16c10.62,4.31,19.94-2.69,19.54-14.68-8.79,1.97-16.31,5.35-19.54,14.68Zm-303.55-94.01c-1.21-4.98-.99-8.96-2.85-10.72-4.36-4.13-14.21-2.86-19.11,2.38,6.76,2.57,13.07,4.97,21.96,8.34Zm89.02-2.39c-9.31-3.67-16.93-1.76-24.95,1.56,6.41,8.03,15.35,7.57,24.95-1.56Zm269.69,81.3c-.42-.73-.84-1.46-1.25-2.2-11.08-1.83-18.7,4.5-17.47,16.6,6.78-5.22,12.75-9.81,18.72-14.41Zm-556.99-398.93c4.76,7.94,10.92,10.71,19.63,9.19-3.08-10.5-9.7-13.74-19.63-9.19Zm-231.58-154.93c7.56,10.04,17.53,9.39,22.89-1.3-7.77.44-14.61.83-22.89,1.3Zm112.18,194.17c.55-.91,1.1-1.81,1.65-2.72-6.57-5.31-11.7-13.5-21.91-11.57-.38.72-.76,1.45-1.15,2.17,7.14,4.04,14.27,8.08,21.41,12.12Zm-38.58-26.15c-2.33-11.59-8.29-16.24-18.19-13.93,6.06,4.64,12.13,9.29,18.19,13.93Zm724.28,399.52c-.64-.65-1.28-1.29-1.92-1.94-11.79,1.27-16.03,6-10.85,14.52,4.44-4.38,8.61-8.48,12.77-12.58Zm-420.72-64.14c-2.94,2.43-4.86,4.02-6.79,5.62,2.55,2.23,4.84,5.05,7.8,6.31.87.37,4.73-3.52,5.11-5.8.24-1.46-3.41-3.55-6.12-6.12Zm-55.65-51.01c-7.27,1.01-14.14-.46-18.43,6.6,10.02,3.21,14.46,1.82,18.43-6.6Zm-109.58-149.37c.29-1.17.57-2.34.86-3.51-6.7-4.02-13.75-6.2-21.64-4.01-.16.71-.32,1.43-.48,2.14,7.09,1.79,14.17,3.59,21.26,5.38Zm180.4,151.55c-6.09-.46-12.18-.92-18.26-1.38,7.79,8.13,12.53,8.58,18.26,1.38ZM73.04,422.94c9.33,8.32,13.33,7.28,16.46-4.56-5.88,1.63-10.62,2.95-16.46,4.56Zm562.04,824.94c5.26,1.83,8.7,3.36,12.31,4.12,1.46.31,3.28-1.02,4.94-1.61-.73-1.72-.97-4.26-2.26-5.02-4.44-2.62-9.02-2.75-14.98,2.5Zm-120.12-136.13c5.65,9.57,11.78,10.09,16.16,1.95-5.81-.7-10.98-1.32-16.16-1.95Zm-70.71-101.43c.23-.82.46-1.65.7-2.47-5.98-1.77-11.97-3.54-17.95-5.31-.23.81-.46,1.61-.69,2.42,5.47,3.69,10.66,8.38,17.94,5.37ZM167.5,490.17c-.15.95-.31,1.91-.46,2.86,3.82,1.35,7.65,2.71,12.03,4.25,1.08-2.48,1.94-4.45,3.11-7.12h-14.68Zm-19.73,99.25c-3.77-10.17-9.43-12.61-16.76-7.75,5.41,2.5,10.35,4.79,16.76,7.75Zm855.57,679.92c11.05.26,16.29-3.46,17.69-11.34-6.34,4.06-12.01,7.7-17.69,11.34Zm168.71-93.9c0,1.06,0,2.13,0,3.19,2.74.67,5.87,2.47,8.11,1.7,2.32-.79,3.78-4.09,5.62-6.29-.6-.81-1.2-1.61-1.8-2.42-3.97,1.27-7.95,2.54-11.92,3.81Zm-915.94-278.02c6.41,5.86,11.52,10.54,16.64,15.22l1.43-1.7c-4.63-5.27-7.42-12.76-18.07-13.53Zm-105.41-392.34c.52.87,1.04,1.74,1.56,2.61,3.11.14,6.22.28,10.02.45-.58-3.77-.98-6.4-1.77-11.54-4.29,3.71-7.05,6.1-9.81,8.49Zm628.78,555.1c-2.98-3.95-4.82-6.38-6.65-8.82-2.34,2.26-4.67,4.53-7.01,6.79.48.68.96,1.35,1.43,2.03h12.23Zm312.89,260.38c7.83,7.6,11.15,6.67,13.64-2.39-4.89.86-9.26,1.62-13.64,2.39Zm-229.13-89.23l2.04,2.97c4.78-3.23,9.55-6.46,14.33-9.68l-1.74-2.6c-4.87,3.11-9.75,6.21-14.62,9.32Zm-278.25-125.47l-.67,2.34c4.07,1.2,8.15,2.4,13.04,3.84-2.29-8.54-4.7-9.48-12.37-6.18Zm-294.6-395.12c1.14-.73,2.28-1.45,3.43-2.18-1.4-3.07-2.8-6.14-4.21-9.21-1.37,1.4-4.13,3.3-3.84,4.12.94,2.64,2.99,4.88,4.62,7.27Zm1004.52,534.41c4.63.49,6.91.73,9.72,1.03v-9.27c-.56-.34-1.11-.68-1.67-1.02-2.25,2.59-4.49,5.17-8.05,9.27Zm-589.54-51.86c.04-.65.08-1.31.12-1.96-8.42-.74-16.85-1.48-25.27-2.22l-.19,2.46c8.45.58,16.89,1.15,25.34,1.73Zm91.59-112.1c-.41,1.42-.82,2.85-1.23,4.27,3.85.99,7.7,1.98,11.56,2.97.35-1.15.7-2.31,1.04-3.46-3.79-1.26-7.58-2.52-11.37-3.78Zm-.74,178.37c.58.5,1.15,1,1.73,1.51,7.43-2.42,7.88-3.11,5.66-11.75-3.02,4.19-5.21,7.21-7.4,10.24Z"/>
      <path class="cls-1" d="m373.13,664.72c-5.64-14.65-11.29-29.3-17.28-44.86,17.13,5.82,46.73,39.63,52.14,58.94-13.31,2.41-7.87,11.74-6.3,20.82-2.04-1.92-3.16-2.89-4.18-3.96-7.58-7.87-7.81-7.61-15.56-.07-1.85,1.8-6.65,2.57-8.95,1.46-3.45-1.66-6.9-4.91-8.61-8.35-11.18-22.48-21.65-45.27-23.18-70.93-.09-1.5.12-3.01.29-6.84,10.04,19.85,16.05,39.55,29.53,54.98l2.1-1.21Z"/>
      <path class="cls-1" d="m463.16,600.89c1.93,3.16,4.3,6.13,5.66,9.52,1.22,3.02,1.53,6.47,1.86,9.77.38,3.93,2.24,5.43,6.09,4.75,6.05-1.07,7.87,2.69,7.86,7.59,0,5.61-.69,11.23-.97,16.84-.27,5.45-.35,10.81,5.25,14.24.99.61,1.95,2.62,1.69,3.68-1.68,6.89-3.13,13.93-5.77,20.47-2.24,5.55-6.72,5.19-10.2.89-18.93-23.37-25.04-49.61-17.01-78.82.78-2.83,2.13-5.51,3.22-8.26.78-.22,1.55-.45,2.33-.67Z"/>
      <path class="cls-1" d="m499.38,404.61c4.88,6.5,4.41,13.25,2.88,20.17-1.77,7.99-3.73,15.94-5.1,23.99-.52,3.05.41,6.35.68,9.53.96.21,1.92.41,2.88.62,4.05-12.62,8.1-25.24,12.15-37.86,1.02.32,2.04.64,3.06.96-2.07,18.76-3.69,37.78-14.85,54.08-5.79,8.45-15.62,7.38-18.25-2.19-6.45-23.45-1.88-45.57,10.88-66.09.64-1.03,1.84-1.77,2.9-2.46.6-.39,1.44-.41,2.76-.75Z"/>
      <path class="cls-1" d="m238.51,570.73c7.66,4.55,15.31,9.1,22.97,13.66.85-.74,1.7-1.48,2.55-2.22-3.55-6.4-7.11-12.8-11.31-20.36,12.12,6.29,24.59,10.47,32.8,21.41,4.53,6.03,3.12,20.67-2.14,25.9-4.39,4.37-9.51,4.31-13.84.67-6.03-5.06-11.8-10.57-16.9-16.56-5.61-6.59-10.34-13.94-15.45-20.97.44-.51.87-1.02,1.31-1.53Z"/>
      <path class="cls-1" d="m280.97,527.64c27.35,5.46,47.63,19.82,64.22,40.03-.28.7-.56,1.4-.84,2.09-15.22-5.22-30.74-9.71-45.55-15.9-10.38-4.34-16.55-13.21-17.83-26.23Z"/>
      <path class="cls-1" d="m347.52,503.51c-3.54,1.67-5.98,2.83-9.27,4.38,4.16,4.6,8.28,9.15,12.4,13.7-.35.62-.7,1.25-1.05,1.87-4.65-1.56-9.5-2.7-13.88-4.82-4.1-1.98-7.59-5.17-11.53-7.53-6.81-4.09-11.57-8.23-9.59-17.91,1.16-5.68-2.12-12.28-3.38-18.37,11.66,9.21,23.37,18.46,36.31,28.68Z"/>
      <path class="cls-1" d="m258.38,544.38c19.49,5.76,35.54,14.75,46.8,31.79-16.94,3.89-34.6-8.13-46.8-31.79Z"/>
      <path class="cls-1" d="m670.9,983.42c16.41,11.17,25.91,25.47,28.93,44.28-14.9-4.2-28.54-24.64-28.93-44.28Z"/>
      <path class="cls-1" d="m296.09,520.81c22.35.96,41.6,9.96,59.49,22.46-.34.88-.68,1.75-1.01,2.63-19.74-7.63-39.49-15.26-59.23-22.9.25-.73.5-1.46.75-2.19Z"/>
      <path class="cls-1" d="m560.77,794.17c11.22,3.8,14.23,13.58,10.99,35.3-7.98-11.23-12.9-21.67-10.99-35.3Z"/>
      <path class="cls-1" d="m338.75,666.71c-3.93-4.98-7.5-8.76-10.03-13.14-.72-1.25,1.06-4.92,2.69-6.2,1.2-.94,4.47-.46,6.06.56,4.96,3.19,5.71,10.19,1.27,18.78Z"/>
      <path class="cls-1" d="m645.23,944.46c-9.58.14-13.19-4.3-14.05-16.61,7.55,1.26,11.46,5.77,14.05,16.61Z"/>
      <path class="cls-1" d="m355.68,486.47c-7.72-.45-12.07-3.64-12.31-10.11-.06-1.68,4.53-5.38,6.17-4.96,7.95,2.02,5.36,8.88,6.14,15.08Z"/>
      <path class="cls-1" d="m517.17,634.03c1.4-10.25,2.79-20.5,4.19-30.75,6.35,11.09.64,20.89-1.72,31.05l-2.47-.3Z"/>
      <path class="cls-1" d="m323.45,608.22c-7.7-1.71-8.57-8.45-10.63-14.31.65-.51,1.31-1.02,1.96-1.53,3.63,4.65,7.26,9.3,10.89,13.95-.74.63-1.48,1.26-2.22,1.89Z"/>
      <path class="cls-1" d="m510.84,597.37v24.87c-5.49-6.03-5.45-10.68,0-24.87Z"/>
      <path class="cls-1" d="m304.09,631.25c1.02,5.37,2.04,10.73,3.24,17.03-8.21-3.31-9.07-7.31-3.24-17.03Z"/>
      <path class="cls-1" d="m590.65,885.88c-4.88-4.56-5-5.89-1.24-14.3,4.06,3.15,4.42,7.34,1.24,14.3Z"/>
      <path class="cls-1" d="m256.06,370.5c-17.89,1.26-27.59-17.92-44.85-15.72,1.7-13.25,9.37-18.35,20.92-14.76,13.69,4.26,23.89,16.78,23.93,30.47Z"/>
      <path class="cls-1" d="m429.03,276.15c.2-11.57,4.56-18.47,11.77-18.58,9.41-.15,19.07,11.7,19.2,23.24.09,7.87-5.5,8.37-10.94,8.41-14.01.11-20.18-4.09-20.03-13.07Z"/>
      <path class="cls-1" d="m368.89,292.5c-7.55,8.12-23.41,10.67-31.84,8.63-6.82-1.65-14.52-1.08-21.59.05-7.91,1.26-15.55,4.26-23.3,6.51-.36-.65-.73-1.3-1.09-1.94,2.26-2.15,4.18-4.91,6.82-6.37,22.27-12.3,45.75-12.13,71-6.88Z"/>
      <path class="cls-1" d="m260.26,339.27c-5.42-2.05-10.59-3.47-15.16-5.98-1.92-1.05-3.78-4.61-3.45-6.68.35-2.23,2.93-4.82,5.18-5.89,6.53-3.12,19.25,1.15,23.18,7.53.93,1.5,1.6,4.89.95,5.34-3.19,2.22-6.86,3.75-10.7,5.68Z"/>
      <path class="cls-1" d="m474.21,288.72c-4.03-8.2-.8-13.58,3.95-18.45,7.01-7.18,14.26-8.63,21.8-4.5-2.56,6.74-8.64,8.59-14.61,9.15-6.49.61-9.95,2.57-9.01,9.62.13.94-1,2.05-2.13,4.18Z"/>
    </g>
  </g>
</svg>