<?xml version="1.0" encoding="UTF-8"?>
<svg id="Capa_2" data-name="Capa 2" xmlns="http://www.w3.org/2000/svg" viewBox="0 0 1197.02 1251.37">
  <defs>
    <style>
      .cls-1 {
        fill: #fff;
      }
    </style>
  </defs>
  <g id="Capa_1-2" data-name="Capa 1">
    <g>
      <path class="cls-1" d="m642.63,0c23.41,2.46,46.89,4.39,70.21,7.49,65.63,8.71,130.12,22.29,188.63,54.77,18.57,10.31,35.48,24.38,51.18,38.86,19.48,17.97,26.98,42.02,26.98,68.38,0,158.83-.14,317.66.09,476.48.06,42.58-21.66,72.09-54.83,95.01-48.24,33.33-103.34,49.22-159.94,59.8-113.24,21.17-226.69,20.97-339.79-1.5-53.31-10.59-104.99-26.15-150.79-56.88-37.3-25.02-57.5-58.07-57.15-105,1.15-152.71,1.17-305.44-.02-458.15-.36-46.53,19.78-79.1,56.57-103.99,42.51-28.75,90.17-45.38,139.86-54.99,42.62-8.25,86.06-12.28,129.13-18.22,3.98-.55,7.92-1.38,11.88-2.08,29.33,0,58.66,0,87.99,0Zm-44.37,54.2c-79.71,1.24-158.5,8.55-234.12,36.12-27.64,10.08-54.37,22.1-75.89,42.97-20.97,20.33-20.84,39.49.09,59.98,4.06,3.97,8.17,8.32,13.1,10.9,21.53,11.29,42.64,23.91,65.25,32.52,56.38,21.47,115.62,30.07,175.55,33.42,90.35,5.04,179.88.09,267.21-25.98,32.07-9.57,63.11-21.78,89.98-42.47,33.51-25.8,34.23-52.62-.39-76.54-20.18-13.94-42.64-25.62-65.6-34.32-75.65-28.65-155.06-35.44-235.19-36.6Zm326.79,523.6c-102.36,59.66-213.36,74.52-326.96,74.47-113.42-.06-224.28-15-326.02-74.61,0,21.6,1.06,41.17-.26,60.58-1.71,25.21,9.38,42.71,28.93,56.7,27.56,19.72,58.52,32.01,90.85,40.51,130.79,34.37,262.26,34.9,393.9,5.29,39.81-8.95,78.36-22.04,111.82-46.54,14.37-10.53,27.18-22.89,27.62-42.36.54-23.98.13-47.98.13-74.03Zm-.71-162.94c-101.77,59.43-212.48,74.11-325.79,74.13-113.49.01-224.36-14.88-326.48-74.46,0,21.44,1.08,40.97-.27,60.32-1.71,24.39,9.24,41.16,27.87,54.72,26.01,18.92,55.1,31.42,85.74,40.11,131.65,37.32,264.25,37.91,397.22,8.06,41.42-9.3,81.42-23.2,115.96-49.14,12.13-9.11,24.63-19.32,25.43-35.64,1.23-25.45.33-51.01.33-78.1ZM272.08,251.03c0,21.76,1.08,41.31-.28,60.69-1.67,23.85,8.83,40.47,26.94,53.93,27.52,20.45,58.7,33.35,91.36,42.26,131.4,35.82,263.55,36.38,395.9,5.76,39.76-9.2,78.53-22.28,111.21-47.69,10.73-8.35,23.61-20.6,25.33-32.53,3.81-26.48,1.19-53.88,1.19-81.58-1.95.82-3.48,1.22-4.76,2.02-56.23,35.37-119.05,51.25-183.59,61.74-73.9,12.02-148.27,13.66-222.68,6.5-69.07-6.64-136.81-19.71-200.23-49.49-13.11-6.16-25.6-13.65-40.4-21.61Z"/>
      <path class="cls-1" d="m762.06,1006.37c0-17.11-.21-34.22.04-51.32.69-46.87,29.73-79.57,76.45-83.81,21.39-1.95,43.26-1.91,64.65.05,43.64,4.01,72.83,31.95,75.28,75.67,2.34,41.75-.1,83.78-.73,125.68-.07,4.74-2.65,9.42-2.97,14.2-.35,5.21-.69,11.03,1.21,15.67,4.68,11.42,3.53,23.46-4.53,31.67-8.34,8.5-21.06,9.63-32.76,4.55-4.46-1.94-10.44-1.47-15.53-.74-39.95,5.77-80.31,11.9-118.44-6.21-26.58-12.62-40.4-36.19-42.11-65.55-1.16-19.89-.22-39.9-.22-59.85-.11,0-.22,0-.33,0Zm162.82,41.21c0-33.07.66-64.28-.27-95.45-.49-16.55-9.68-25.69-26-26.65-18.61-1.1-37.4-1.1-56,.05-16.6,1.03-25.98,11.29-26.22,27.95-.51,35.35-.45,70.72,0,106.07.18,14.67,8.59,25.99,21.4,27.22,15,1.45,30.24.34,46.06.34-14.91-20.19-16.24-33.94-4.98-45.18,11.5-11.49,24.17-10.23,46.02,5.64Z"/>
      <path class="cls-1" d="m108.99,961.05c19.6-26.09,38.4-51.09,57.16-76.13,7.3-9.75,16.28-16.08,29.11-13.63,14.55,2.77,22.29,13.21,22.33,30.37.13,50.48.05,100.95.05,151.43,0,19.54.19,39.08-.07,58.62-.24,18.44-10.54,29.96-26.43,30.27-16.4.31-27.5-11.51-27.59-30.39-.21-42.71-.07-85.41-2.26-129.46-8.33,11.12-16.64,22.25-24.99,33.35-17.96,23.88-36.78,23.79-54.81-.26-8.17-10.89-16.33-21.78-24.5-32.67-.85.28-1.7.57-2.55.85,0,3.88,0,7.75,0,11.63,0,37.45.29,74.91-.24,112.35-.11,7.78-1.83,16.28-5.38,23.11-5.21,10-15.27,12.78-26.24,10.97-10.63-1.75-17.74-8.03-20.52-18.35-1.46-5.41-1.94-11.22-1.95-16.85-.13-66.76-.08-133.52-.08-200.28,0-2.44-.09-4.89.09-7.32.98-13.69,7.82-22.97,19.61-26.59,12.59-3.87,22.56.76,30.1,10.52,15.92,20.61,31.39,41.56,47.04,62.37,3.66,4.87,7.33,9.73,12.13,16.11Z"/>
      <path class="cls-1" d="m594.16,1012.81c-1.32,5.75-2.65,11.51-4.29,18.66-22.31-1.71-43.44-8.09-62.71-19.41-47.38-27.84-49.82-84.7-5.52-117.96,44.71-33.57,119.34-30.8,161.26,6.26,13.2,11.67,21.82,26.27,23.73,44.09,1.67,15.61-7.33,27.94-21.65,30.57-14.21,2.6-24.37-5.16-30.87-19.56-3.74-8.27-10.19-17.46-17.89-21.41-25.82-13.25-52.75-12.8-78.14,1.77-5.82,3.34-12.12,11.4-12.21,17.38-.07,4.8,8.11,12.22,14.03,14.16,18.84,6.14,38.43,9.91,57.54,15.27,15.2,4.27,30.76,8.11,45.04,14.61,53.59,24.41,60.32,84.81,14.08,121.06-43.85,34.36-122.28,31.34-163.18-6.5-12.61-11.67-21.01-25.89-22.75-43.31-1.54-15.37,6.66-27.02,20.59-30.01,14.94-3.21,25.6,4.27,31.98,19.31,3.26,7.69,9.09,15.51,15.88,20.25,21.15,14.75,62.56,12.8,83.5-2.52,14.28-10.45,13.39-22.1-2.88-29.31-8.85-3.92-18.23-7.82-27.69-8.86-12.2-1.35-15.69-7.71-15.72-18.32,0-2-.42-3.99-.64-5.98l-1.48-.22Z"/>
      <path class="cls-1" d="m353.78,1054.38c9.94-19.86,18.77-37.58,27.67-55.27,5.62-11.16,13.3-19.48,27.05-19.3,17.03.23,29.67,15.77,25.81,32.35-1.18,5.07-3.55,9.94-5.89,14.64-33.56,67.26-67.2,134.47-100.83,201.7-.55,1.09-1.05,2.2-1.61,3.28-8.94,17.13-23.61,23.74-37.61,16.95-15.46-7.5-19.69-23.41-10.69-41.76,12.53-25.53,24.72-51.27,38.32-76.22,5.9-10.82,6.13-19.26.26-30.14-14.07-26.09-26.88-52.87-39.95-79.49-5.18-10.55-5.58-21.33,2.01-31.03,6.53-8.36,15.52-11.61,26-9.82,10.62,1.81,16.82,9.09,21.38,18.18,8.92,17.78,17.84,35.55,28.07,55.93Z"/>
      <path class="cls-1" d="m1088.09,1087.95c24.46,0,47.55-.12,70.64.08,6.05.05,12.24.44,18.1,1.81,11.88,2.78,20.38,14.16,20.19,25.84-.21,12.37-9.48,23.87-22.02,25.58-9.22,1.26-18.66,1.1-28,1.15-26.87.13-53.74.27-80.61-.04-22.08-.26-32.45-10.43-32.51-32.09-.18-69.21-.15-138.42,0-207.63.04-17.94,8.05-28.35,22.95-31.16,11.75-2.22,24.38,4.04,28.57,15.54,2.16,5.92,2.56,12.72,2.58,19.13.19,55.78.11,111.55.11,167.33,0,4.37,0,8.74,0,14.48Z"/>
    </g>
  </g>
</svg>