<?xml version="1.0" encoding="UTF-8"?>
<svg id="Capa_2" data-name="Capa 2" xmlns="http://www.w3.org/2000/svg" viewBox="0 0 571.05 649">
  <defs>
    <style>
      .cls-1 {
        fill: #fff;
      }
    </style>
  </defs>
  <g id="Capa_1-2" data-name="Capa 1">
    <path class="cls-1" d="m0,0c190.35,0,380.7,0,571.05,0-.06,2.32.01,4.65-.19,6.96-4.25,47.99-8.5,95.99-12.8,143.98-6.58,73.46-13.25,146.91-19.79,220.37-6.13,68.83-12.17,137.67-18.14,206.51-.37,4.31-1.68,6.5-6.3,7.79-75.04,20.83-150,41.93-225.02,62.85-2.46.69-5.45.75-7.9.06-74.78-20.99-149.51-42.14-224.29-63.12-3.64-1.02-5.24-2.54-5.57-6.31-3.84-44.42-7.79-88.84-11.72-133.25-3.54-40-7.06-79.99-10.62-119.98-4.06-45.68-8.16-91.35-12.24-137.02-3.61-40.41-7.27-80.82-10.82-121.24C3.67,45.06,1.88,22.53,0,0Zm373.19,336.25c0,1.82.08,2.86-.01,3.88-2.64,28.2-5.37,56.39-7.89,84.59-.35,3.87-2.55,4.7-5.62,5.51-23.46,6.23-46.87,12.68-70.37,18.78-3.06.8-6.71.67-9.79-.13-20.83-5.43-41.59-11.15-62.37-16.8q-11.95-3.25-13.06-15.35c-.41-4.42-.8-8.84-1.24-13.26-1.03-10.43-2.09-20.86-3.11-31.13h-70.39c0,2.33-.13,4.22.02,6.1,2.6,33.93,5.31,67.86,7.78,101.8.3,4.08,2.28,5.14,5.73,6.08,36.45,9.96,73.21,18.97,109.14,30.57,22.49,7.27,43.15,7.16,65.61-.03,35.96-11.52,72.71-20.53,109.16-30.51,3.29-.9,5.62-1.65,5.96-5.89,1.48-18.96,3.33-37.9,5.07-56.84,3.64-39.57,7.3-79.13,10.93-118.7,1.23-13.41,2.37-26.84,3.62-41.03H190.89c-2.03-24.76-4-48.84-6.02-73.48h273.64c2.16-23.7,4.28-46.98,6.45-70.69H106.08c6.36,72.35,12.68,144.26,19.04,216.52h248.07Z"/>
  </g>
</svg>