<?xml version="1.0" encoding="UTF-8"?>
<svg id="Capa_2" data-name="Capa 2" xmlns="http://www.w3.org/2000/svg" viewBox="0 0 828.57 828.73">
  <defs>
    <style>
      .cls-1 {
        fill: #fff;
      }
    </style>
  </defs>
  <g id="Capa_1-2" data-name="Capa 1">
    <g>
      <path class="cls-1" d="m343.16,828.73c-11.5-3.49-23.64-5.61-34.39-10.69-46.38-21.96-71.52-59.04-72.16-110.45-.94-75.48-.29-150.98-.22-226.48.03-25.37,17.27-42.36,42.89-42.37,90.31-.05,180.61.08,270.92-.06,43.34-.07,78.47-27.56,88.19-69,1.76-7.52,2.32-15.47,2.38-23.22.25-33.43.11-66.86.11-100.3v-9.73c10.98,0,21.41-.27,31.81.06,19.62.63,39.68-.74,58.76,2.89,50.89,9.67,87.15,48.95,95.68,100.26.21,1.24.94,2.4,1.43,3.6v142.41c-.46.93-1.16,1.81-1.33,2.79-11.36,63.43-59.54,103.96-123.77,104.01-53.89.04-107.79,0-161.68,0-41.77,0-83.54.04-125.31-.03-10.66-.02-18.91,4.03-23.76,13.67-8.39,16.66,3.75,34.84,23.42,34.88,55.78.11,111.56.04,167.34.04h8.82c0,23.56.21,45.91-.04,68.26-.61,53.26-36.81,100.27-88.16,114.73-6.14,1.73-12.37,3.16-18.56,4.74h-142.39Zm152.07-98.9c-.1-13.11-11.11-24.06-24.22-24.07-13.11-.01-24.14,10.92-24.26,24.03-.12,13.45,11.19,24.7,24.62,24.48,13.11-.21,23.96-11.32,23.86-24.44Z"/>
      <path class="cls-1" d="m187.17,592.79c-33.23-2.32-66.54,4.01-99.11-5.14C36.8,573.24.58,525.88.21,472.56c-.27-38.57-.27-77.14-.01-115.7.44-66.41,54.18-120.16,120.77-120.36,96-.28,192-.07,287.99-.1,3.49,0,7.08.11,10.45-.64,12.29-2.72,20.51-14.26,19.08-26.29-1.49-12.56-11.67-21.54-25.16-21.56-55.82-.1-111.64-.04-167.46-.04-2.9,0-5.81,0-9.86,0,2.32-33.69-4-66.96,5.11-99.53C255.51,36.88,302.66.65,355.95.23c38.83-.3,77.66-.32,116.49,0,65.61.53,119.41,54.05,119.78,119.68.42,76.05.17,152.11.08,228.17-.03,24.9-17.35,42.04-42.41,42.06-90.34.07-180.67-.05-271.01.06-43.49.06-78.66,27.3-88.48,68.66-1.85,7.77-2.41,16-2.47,24.02-.27,35.6-.15,71.2-.18,106.8,0,.52-.19,1.04-.59,3.11ZM381.96,98.5c-.19-13.12-11.29-23.98-24.4-23.89-13.12.09-24.07,11.08-24.09,24.2-.02,13.43,11.4,24.62,24.8,24.3,13.11-.31,23.88-11.5,23.69-24.61Z"/>
    </g>
  </g>
</svg>