<?xml version="1.0" encoding="UTF-8"?>
<svg id="Capa_2" data-name="Capa 2" xmlns="http://www.w3.org/2000/svg" viewBox="0 0 281 281">
  <defs>
    <style>
      .cls-1 {
        fill: #fff;
      }
    </style>
  </defs>
  <g id="Capa_1-2" data-name="Capa 1">
    <g>
      <path d="m281,41v200c-.33.83-.83,1.64-.98,2.5-2.79,15.39-10.21,26.87-25.5,32.86-8.72,3.41-17.51,3.65-26.53,3.69-2.33.01-4.66.62-6.99.96h-62c-1.5-.34-3.01-.94-4.51-.96-6.66-.11-13.32-.11-19.97,0-1.51.02-3.01.62-4.51.96H58c-1.51-.34-3-.87-4.52-.97-6.09-.42-12.28-.14-18.25-1.15-15.04-2.55-26.46-10.35-30.05-25.8-2.42-10.45-3.23-21.34-4.05-32.08-.62-8.12-.07-16.32-.17-24.48-.02-1.51-.63-3.01-.96-4.52,0-37,0-74,0-111,.34-1.67.88-3.33.97-5.01.72-13,.88-26.05,2.14-38.99C4.96,17.92,14.86,7.22,33.47,3.02,38.61,1.86,43.82,1,49,0c52.33,0,104.67,0,157,0,1.34.34,2.66.92,4.01.97,11.23.4,22.51.15,33.67,1.18,13.9,1.29,25.51,7.21,31.52,20.65,2.58,5.78,3.9,12.12,5.8,18.2ZM95.87,201.12c6.75.34,12.15.5,17.53.91,5.18.4,8.4-2.25,10.67-6.45,9.97-18.38,19.88-36.79,29.84-55.17,5.99-11.05,12.1-22.04,18.01-33.13,4.51-8.47,8.81-17.06,13.24-25.67-1.77-.52-3.13-.98-4.52-1.33-11.34-2.87-16.95-1.16-22.17,7.9-9.7,16.82-18.97,33.88-28.48,50.8-7.19,12.8-14.55,25.51-21.66,38.35-4.15,7.49-7.96,15.17-12.45,23.78Zm-3.54-.64c.65-2.64,1.5-4.51,1.5-6.38,0-5.9,2.09-12.43-3.63-17.01-8.17-6.55-16.53-12.85-24.76-19.33-7.17-5.64-14.27-11.37-22-17.55,13.12-9.97,25.41-20.07,38.49-29.03,11.34-7.77,14.59-17.05,10.43-30.23-1.17.56-2.47.92-3.45,1.7-17.51,13.77-35.05,27.5-52.41,41.46-4.66,3.75-8.07,8.41-8.59,14.92-.77,9.64,5.12,15.44,11.55,20.65,13.1,10.61,26.53,20.8,39.86,31.11,4.2,3.25,8.52,6.35,13.01,9.69Zm97.8-.55c2-1.11,3.87-1.84,5.39-3.03,16.79-13.05,33.61-26.05,50.23-39.31,12.24-9.77,13.03-23.99-.19-33.86-10.76-8.03-20.95-16.81-31.49-25.14-7.65-6.05-15.45-11.9-24.58-18.93-.21,5.06-.2,8.71-.53,12.32-.65,6.98,2.54,12.13,7.76,16.15,6.59,5.08,13.46,9.81,20.08,14.85,7.45,5.68,14.76,11.55,22.76,17.83-14.03,10.59-27.32,20.93-40.94,30.82-9.18,6.66-12.56,16.42-8.49,28.3Z"/>
      <path class="cls-1" d="m95.87,201.12c4.49-8.61,8.3-16.29,12.45-23.78,7.11-12.84,14.47-25.55,21.66-38.35,9.51-16.93,18.78-33.99,28.48-50.8,5.22-9.06,10.83-10.77,22.17-7.9,1.39.35,2.75.81,4.52,1.33-4.43,8.61-8.72,17.2-13.24,25.67-5.91,11.09-12.02,22.08-18.01,33.13-9.96,18.38-19.87,36.79-29.84,55.17-2.27,4.19-5.5,6.84-10.67,6.45-5.38-.41-10.78-.57-17.53-.91Z"/>
      <path class="cls-1" d="m92.34,200.49c-4.5-3.34-8.81-6.44-13.01-9.69-13.33-10.31-26.77-20.5-39.86-31.11-6.44-5.21-12.32-11.01-11.55-20.65.52-6.52,3.93-11.18,8.59-14.92,17.36-13.95,34.9-27.69,52.41-41.46.98-.77,2.28-1.13,3.45-1.7,4.16,13.18.92,22.46-10.43,30.23-13.08,8.96-25.37,19.06-38.49,29.03,7.73,6.17,14.83,11.91,22,17.55,8.23,6.48,16.59,12.78,24.76,19.33,5.72,4.58,3.62,11.11,3.63,17.01,0,1.87-.85,3.74-1.5,6.38Z"/>
      <path class="cls-1" d="m190.14,199.94c-4.07-11.88-.69-21.63,8.49-28.3,13.62-9.89,26.91-20.23,40.94-30.82-8-6.28-15.31-12.15-22.76-17.83-6.62-5.05-13.49-9.77-20.08-14.85-5.21-4.02-8.4-9.16-7.76-16.15.33-3.61.33-7.25.53-12.32,9.14,7.02,16.94,12.88,24.58,18.93,10.54,8.33,20.73,17.12,31.49,25.14,13.23,9.87,12.44,24.09.19,33.86-16.62,13.26-33.45,26.26-50.23,39.31-1.52,1.18-3.39,1.92-5.39,3.03Z"/>
    </g>
  </g>
</svg>